# xmcd
#
# Track frame offsets: 
#        150
#        16466
#        32061
#        48084
#        63958
#        81519
#        100028
#        114342
#        133266
#        155337
#        168300
#        181257
#
# Disc length: 2598 seconds
#
# Revision: 0
# Processed by: cddbd v1.5.1PL0 Copyright (c) Steve Scherf et al.
# Submitted via: ExactAudioCopy v0.95b3
#
DISCID=920a240c
DTITLE=Mark David Manders - Cannonball
DYEAR=2005
DGENRE=Country
TTITLE0=I'm Alright
TTITLE1=Good Enough For Me
TTITLE2=Three Fingers Tequila
TTITLE3=Eight Track
TTITLE4=Frio River
TTITLE5=The Last Supper
TTITLE6=Cannonball - (L.A. mix)
TTITLE7=Fort Worth
TTITLE8=My Old Friend
TTITLE9=All It Takes
TTITLE10=Take A Look Around
TTITLE11=Cannonball - (Austin mix)
EXTD=
EXTT0=
EXTT1=
EXTT2=
EXTT3=
EXTT4=
EXTT5=
EXTT6=
EXTT7=
EXTT8=
EXTT9=
EXTT10=
EXTT11=
PLAYORDER=
